<?xml version="1.0" encoding="utf-8"?>
<!DOCTYPE svg PUBLIC "-//W3C//DTD SVG 1.1//EN" "http://www.w3.org/Graphics/SVG/1.1/DTD/svg11.dtd">
<svg version="1.1" id="Layer_1" xmlns="http://www.w3.org/2000/svg" xmlns:xlink="http://www.w3.org/1999/xlink" x="0px" y="0px"
	 width="200px" height="200px" viewBox="0 0 483 483" enable-background="new 0 0 483 483" xml:space="preserve">
<polyline fill="#333333" points="141.103,260.423 141.103,411.496 212.635,411.496 212.635,283.759 245.533,283.029 
	245.533,212.226 187.818,212.226 "/>
<path fill="#333333" d="M240.737,0.693c-132.549,0-240,107.452-240,240c0,132.548,107.452,240,240,240
	c132.548,0,240-107.452,240-240C480.737,108.145,373.285,0.693,240.737,0.693z M240.737,410.693c-93.739,0-170-76.262-170-170
	s76.262-170,170-170c93.738,0,170,76.262,170,170S334.476,410.693,240.737,410.693z"/>
</svg>
