<?xml version="1.0" encoding="utf-8"?>
<!-- Generator: Adobe Illustrator 16.0.0, SVG Export Plug-In . SVG Version: 6.00 Build 0)  -->
<!DOCTYPE svg PUBLIC "-//W3C//DTD SVG 1.1//EN" "http://www.w3.org/Graphics/SVG/1.1/DTD/svg11.dtd">
<svg version="1.1" id="Layer_1" xmlns="http://www.w3.org/2000/svg" xmlns:xlink="http://www.w3.org/1999/xlink" x="0px" y="0px"
	 width="200px" height="200px" viewBox="0 0 200 200" enable-background="new 0 0 200 200" xml:space="preserve">
<polyline fill="#FFFFFF" points="58.428,107.836 58.428,170.392 88.048,170.392 88.048,117.498 101.67,117.196 101.67,87.878 
	77.771,87.878 "/>
<path fill="#FFFFFF" d="M99.684,0.287c-54.886,0-99.379,44.494-99.379,99.379c0,54.885,44.494,99.379,99.379,99.379
	s99.378-44.494,99.378-99.379C199.062,44.781,154.569,0.287,99.684,0.287z M99.684,170.059c-38.815,0-70.394-31.578-70.394-70.393
	c0-38.815,31.579-70.394,70.394-70.394s70.394,31.579,70.394,70.394C170.078,138.48,138.5,170.059,99.684,170.059z"/>
</svg>
